<svg data-v-6805eed4="" version="1.0" xmlns="http://www.w3.org/2000/svg" xmlns:xlink="http://www.w3.org/1999/xlink" width="100%" height="100%" viewBox="0 0 340.000000 250.000000" preserveAspectRatio="xMidYMid meet" color-interpolation-filters="sRGB" style="margin: auto;"> <rect data-v-6805eed4="" x="0" y="0" width="100%" height="100%" fill="#fff" fill-opacity="1" class="background"></rect> <rect data-v-6805eed4="" x="0" y="0" width="100%" height="100%" fill="url(#watermark)" fill-opacity="1" class="watermarklayer"></rect> <g data-v-6805eed4="" fill="#333" class="icon-text-wrapper icon-svg-group iconsvg" transform="translate(129.125,61.902442932128906)"><g class="iconsvg-imagesvg" transform="translate(10.875,0)"><g><rect fill="#333" fill-opacity="0" stroke-width="2" x="0" y="0" width="60" height="60.192616372391655" class="image-rect"></rect> <svg x="0" y="0" width="60" height="60.192616372391655" filtersec="colorsb3747888802" class="image-svg-svg primary" style="overflow: visible;"><svg xmlns="http://www.w3.org/2000/svg" viewBox="0 0 99.68000030517578 100"><g fill-rule="evenodd"><path d="M85.17 19.91h14.51V88.2c-22.62-1.41-41 2.85-56 11.8V89.44A89.39 89.39 0 0 1 67 71.26V25.05a124.53 124.53 0 0 0-22.49 18.81v-11.8c11-13.45 23.39-18.7 36.37-20.22V74l-17.17 9a127.23 127.23 0 0 1 21.51-3z" fill="#333"></path><path d="M14.51 80.09H0V11.8C22.62 13.21 41 9 56 0v10.55a89.38 89.38 0 0 1-23.3 18.19v46.2a124.81 124.81 0 0 0 22.47-18.8v11.8c-11 13.45-23.39 18.7-36.37 20.22V26L36 17a127.5 127.5 0 0 1-21.51 3z" fill="#588c7e"></path></g></svg></svg> <!----></g></g> <g transform="translate(0,67.1926155090332)"><g data-gra="path-name" fill-rule="" class="tp-name iconsvg-namesvg" transform="translate(0,0)"><g transform="scale(1)"><g><path d="M23.07-41.36L23.07-41.36 33.17-41.36 33.17-41.33Q33.17-39.83 32.5-36.85L32.5-36.85Q32.5-36.82 32.01-35.37L32.01-35.37Q33.09-34.56 33.86-34.16L33.86-34.16Q34.59-33.76 36.01-33.3L36.01-33.3Q37.03-32.98 39.58-32.58L39.58-32.58 40.79-32.44Q40.79-32.39 38.94-23.63L38.94-23.63Q38.94-23.63 37.87-23.98L37.87-23.98 37.87-19.69 19.23-19.69 19.23-24.01 21.51-24.01Q21.56-23.98 22.18-23.04L22.18-23.04 35.1-23.04Q35.15-23.04 35.58-24.01L35.58-24.01 37.81-24.01 37.81-24.06Q35.61-24.81 33.68-26.18L33.68-26.18Q30.75-28.33 29.59-30.94L29.59-30.94 29.57-30.94Q28.79-30.08 28.36-29.59L28.36-29.59Q26.48-27.93 25.16-27.2L25.16-27.2Q23.71-26.35 22.13-25.7L22.13-25.7Q20.33-25 17.91-24.38L17.91-24.38Q17.43-24.25 16.73-24.12L16.73-24.12Q20.57-29.7 21.7-33.17L21.7-33.17Q22.18-34.35 22.69-37.09L22.69-37.09Q23.07-40.12 23.07-41.36ZM5.99-32.41L5.99-41.01 14.15-41.01 14.15-32.41 14.5-32.41Q15.04-33.25 15.2-33.38L15.2-33.38 17.46-33.38 17.46-29.03 14.21-29.03Q14.15-29.03 14.15-29L14.15-29 14.15-17.89 16.81-18.75 16.84-18.75Q15.74-16.33 14.15-13.94L14.15-13.94 14.15 2.12 2.66 2.12 2.66-2.23 3.36-2.23 4.08-1.24 5.99-1.24 5.99-7.25Q4.19-6.66 3.92-6.66L3.92-6.66 3.92-6.66Q2.42-15.79 2.36-16.3L2.36-16.3 2.39-16.3Q4.48-16.22 5.42-16.22L5.42-16.22Q5.88-16.25 5.99-16.25L5.99-16.25 5.99-29.03 2.15-29.03 2.15-33.38 4.4-33.38Q4.48-33.35 5.08-32.44L5.08-32.44 5.13-32.41 5.99-32.41ZM18.1-18.8L18.1-18.8 20.36-18.8Q20.38-18.8 21.08-17.78L21.08-17.78 21.11-17.78Q24.95-17.78 36.23-17.75L36.23-17.75Q36.79-18.64 36.93-18.77L36.93-18.77 39.18-18.77Q39.16-12.3 39.16-7.98L39.16-7.98Q39.16-4.32 39.18 2.69L39.18 2.69 39.16 2.69Q32.2 2.69 18.1 2.66L18.1 2.66 18.1 2.18 18.07 2.18Q18.07-4.78 18.1-18.8ZM28.36-14.42L26.94-14.42 26.94-0.73Q28.63-0.67 29.57-0.67L29.57-0.67 30.27-0.67 30.27-14.42Q29.06-14.42 28.36-14.42L28.36-14.42ZM62.57-30.43L62.57-41.04 71.73-41.04 71.73-33.73 71.76-33.73Q74.69-35.1 77.93-37.38L77.93-37.38Q78.77-37.97 79.71-38.73L79.71-38.73Q79.79-38.65 82.8-33.46L82.8-33.46 83.39-32.47Q81.91-31.07 81.08-30.62L81.08-30.62Q79.84-29.73 78.07-28.92L78.07-28.92Q75.97-28.04 73.93-27.55L73.93-27.55Q73.02-27.34 71.73-27.15L71.73-27.15 71.73-22.37 82.37-22.37Q83.06-23.34 83.09-23.36L83.09-23.36 83.76-23.36 83.76-18.99 62.63-18.99Q62.57-18.99 62.57-19.04L62.57-19.04 62.57-27.23Q60.29-27.63 58.92-28.09L58.92-28.09Q57.26-28.71 56.58-29.19L56.58-29.19Q59.57-29.68 62.28-30.35L62.28-30.35Q62.28-30.37 62.57-30.43L62.57-30.43ZM46.22-40.82L46.22-40.82 54.44-40.82Q54.41-40.55 54.41-40.44L54.41-40.44 54.41-39.64Q54.41-36.28 56.07-34.78L56.07-34.78 56.02-34.78Q53.47-35.15 51.97-35.61L51.97-35.61Q50.09-36.2 48.9-36.87L48.9-36.87Q48.21-37.28 47.43-38.03L47.43-38.03Q46.22-39.42 46.22-40.82ZM46.22-33.57L46.22-33.57 54.44-33.57Q54.44-33.33 54.41-33.14L54.41-33.14Q54.41-29.46 56.07-27.5L56.07-27.5 56.07-27.47Q54.17-27.66 52.77-27.93L52.77-27.93Q51.19-28.28 50-28.79L50-28.79Q49.06-29.19 48.18-29.89L48.18-29.89Q47.16-30.88 46.94-31.56L46.94-31.56Q46.67-32.07 46.22-33.57ZM56.26-26.26L57.39-26.86 57.39-26.83Q56.77-23.98 56.02-22.21L56.02-22.21Q55.4-20.73 54.41-19.34L54.41-19.34Q54.06-18.77 52.96-17.67L52.96-17.67Q52.91-17.67 52.48-17.32L52.48-17.32Q51.16-16.38 50.17-15.98L50.17-15.98Q48.18-15.33 47.64-15.33L47.64-15.33 45.22-21.89Q46.78-22.02 48.21-22.37L48.21-22.37Q49.41-22.72 50.6-23.26L50.6-23.26Q52.45-24.17 56.26-26.26L56.26-26.26ZM59.43-13.75L59.43-18.02 68.7-18.02 68.7-13.75 80.46-13.75Q80.49-13.75 81.21-14.74L81.21-14.74 83.47-14.74 83.47-10.39 72.46-10.39Q72.86-9.96 73.58-9.45L73.58-9.45Q75.28-8.16 76.99-7.28L76.99-7.28Q78.36-6.55 80.22-5.88L80.22-5.88Q81.56-5.4 83.84-4.97L83.84-4.97Q83.9-4.97 83.9-4.94L83.9-4.94Q83.71-4.73 78.42 2.63L78.42 2.63Q78.39 2.69 78.36 2.69L78.36 2.69 78.34 2.69Q76.27 1.53 74.15-0.3L74.15-0.3Q72.43-1.93 72.11-2.52L72.11-2.52Q71.09-3.81 70.31-5.53L70.31-5.53Q69.5-7.14 68.72-10.21L68.72-10.21 68.7-10.21 68.7 2.47Q68.7 2.52 68.67 2.52L68.67 2.52 59.43 2.52 59.43-10.07 59.4-10.07Q59.4-9.64 58.57-7.09L58.57-7.09Q56.69-2.23 52.42 0.16L52.42 0.16Q51.13 0.97 48.82 1.75L48.82 1.75Q47.7 2.09 45.52 2.52L45.52 2.52Q45.39 2.6 45.28 2.6L45.28 2.6Q46.49 0.67 47.29-1.18L47.29-1.18Q48.18-3.14 48.8-5.29L48.8-5.29Q49.31-6.88 49.71-9.53L49.71-9.53 49.82-10.37 49.76-10.39 44.98-10.39 44.98-14.74 47.27-14.74Q47.96-13.75 47.99-13.75L47.99-13.75 59.43-13.75Z" transform="translate(-2.1500000953674316, 41.36000061035156)"></path></g> <!----> <!----> <!----> <!----> <!----> <!----> <!----></g></g> <g data-gra="path-slogan" fill-rule="" class="tp-slogan iconsvg-slogansvg" fill="#333" transform="translate(5.434173583984375,50.04999923706055)"><!----> <!----> <g transform="scale(1, 1)"><g transform="scale(1)"><path d="M7.17-6.09L7.17-6.09L6.09-6.09Q6-7.73 3.94-7.83L3.94-7.83Q2.02-7.78 2.02-6.33L2.02-6.33Q2.02-5.39 3.05-5.25L3.05-5.25L5.48-4.69Q7.41-4.22 7.41-2.34L7.41-2.34Q7.36 0.05 4.03 0.14L4.03 0.14Q2.20 0.14 1.45-0.61L1.45-0.61Q0.52-1.31 0.56-2.77L0.56-2.77L1.69-2.77Q1.73-0.80 4.03-0.75L4.03-0.75Q6.28-0.80 6.33-2.20L6.33-2.20Q6.52-3.38 4.45-3.75L4.45-3.75L2.67-4.13Q0.84-4.64 0.84-6.19L0.84-6.19Q0.98-8.72 3.84-8.81L3.84-8.81Q7.08-8.81 7.17-6.09ZM10.17-1.03L15.33-1.03L15.33 0L9 0L9-8.58L15.23-8.58L15.23-7.59L10.17-7.59L10.17-4.92L14.86-4.92L14.86-3.89L10.17-3.89L10.17-1.03ZM17.48-8.58L19.92-1.27L22.41-8.58L23.72-8.58L20.58 0L19.31 0L16.17-8.58L17.48-8.58ZM26.11-1.03L31.27-1.03L31.27 0L24.94 0L24.94-8.58L31.17-8.58L31.17-7.59L26.11-7.59L26.11-4.92L30.80-4.92L30.80-3.89L26.11-3.89L26.11-1.03ZM34.17-8.58L38.48-1.64L38.48-8.58L39.61-8.58L39.61 0L38.30 0L33.94-6.94L33.89-6.94L33.89 0L32.77 0L32.77-8.58L34.17-8.58ZM43.59-7.59L40.69-7.59L40.69-8.58L47.63-8.58L47.63-7.59L44.72-7.59L44.72 0L43.59 0L43.59-7.59ZM49.97-1.03L55.13-1.03L55.13 0L48.80 0L48.80-8.58L55.03-8.58L55.03-7.59L49.97-7.59L49.97-4.92L54.66-4.92L54.66-3.89L49.97-3.89L49.97-1.03ZM57.94-1.03L63.09-1.03L63.09 0L56.77 0L56.77-8.58L63-8.58L63-7.59L57.94-7.59L57.94-4.92L62.63-4.92L62.63-3.89L57.94-3.89L57.94-1.03ZM66-8.58L70.31-1.64L70.31-8.58L71.44-8.58L71.44 0L70.13 0L65.77-6.94L65.72-6.94L65.72 0L64.59 0L64.59-8.58L66-8.58Z" transform="translate(-0.5602678571428572, 8.8125)"></path></g></g></g></g></g><defs v-gra="od"></defs></svg>